<svg xmlns="http://www.w3.org/2000/svg" width="130" height="30" fill="none" viewBox="0 0 130 30"><path fill="#fff" fill-rule="evenodd" d="M42.205 4.9q2.252 0 3.956.467T48.8 6.714q.96.879.96 2.143 0 1.347-.74 2.117-.715.742-1.923.742-.797 0-1.676-.275a31 31 0 0 0-1.814-.522 7 7 0 0 0-2.005-.274q-.962 0-1.456.301-.495.276-.495.742 0 .578.66.852.66.275 2.17.66l1.539.358q1.895.466 3.324 1.126t2.224 1.731q.798 1.073.797 2.804 0 2.088-.989 3.408-.99 1.29-2.747 1.896-1.758.604-4.12.605-1.538 0-3.105-.303a13.8 13.8 0 0 1-2.857-.934q-1.29-.633-2.088-1.512a3.07 3.07 0 0 1-.797-2.088q0-1.512.962-2.419t2.253-.852a5.8 5.8 0 0 1 2.032.44q1.017.384 2.06.77 1.073.384 2.144.384t1.484-.275q.412-.274.412-.741 0-.55-.577-.908-.577-.357-1.456-.55l-1.347-.33a33 33 0 0 1-3.735-1.098q-1.65-.632-2.61-1.65-.934-1.043-.934-2.775 0-1.896 1.044-3.078Q36.436 6 38.222 5.45t3.983-.55m17.411 0q2.253 0 3.956.467t2.637 1.347q.961.879.962 2.143 0 1.347-.742 2.117-.715.742-1.923.742-.797 0-1.676-.275a31 31 0 0 0-1.813-.522 7 7 0 0 0-2.005-.274q-.962 0-1.456.301-.495.276-.495.742 0 .578.66.852.66.275 2.17.66l1.538.358q1.895.466 3.324 1.126t2.225 1.731q.797 1.073.797 2.804 0 2.088-.989 3.408-.99 1.29-2.747 1.896-1.758.604-4.121.605-1.538 0-3.105-.303a13.7 13.7 0 0 1-2.856-.934q-1.29-.633-2.088-1.512a3.07 3.07 0 0 1-.797-2.088q0-1.512.961-2.419.962-.907 2.253-.852a5.8 5.8 0 0 1 2.033.44q1.017.384 2.06.77a6.3 6.3 0 0 0 2.144.384q1.07 0 1.483-.275.411-.274.412-.741 0-.55-.577-.908-.577-.357-1.456-.55l-1.346-.33a33 33 0 0 1-3.736-1.098q-1.65-.632-2.61-1.65-.933-1.043-.934-2.775 0-1.896 1.044-3.078Q53.847 6 55.633 5.45q1.785-.55 3.983-.55M29.1 5.037q1.51 0 2.362 1.018.85 1.017.851 3.077v7.833q0 2.309-.659 3.902-.631 1.566-1.786 2.528a6.95 6.95 0 0 1-2.61 1.347q-1.455.385-3.104.385a12.8 12.8 0 0 1-3.159-.44 7.5 7.5 0 0 1-2.665-1.346q-1.18-.935-1.868-2.501-.66-1.566-.66-3.875V7.648q0-1.32.852-1.95.879-.66 2.034-.66 1.125 0 2.004.66.88.63.88 1.95v8.025q0 1.951.907 2.858.933.907 2.39.825 1.538-.111 2.197-1.182.687-1.072.385-2.858a16 16 0 0 0-.44-2.034 14 14 0 0 0-.467-1.457q-.219-.66-.384-1.29a10.4 10.4 0 0 1-.248-1.54q-.164-1.841.742-2.886.934-1.072 2.446-1.072m53.332 0q1.51 0 2.362 1.018.851 1.017.852 3.077v7.833q0 2.309-.66 3.902-.63 1.566-1.785 2.528a6.95 6.95 0 0 1-2.61 1.347 12 12 0 0 1-3.105.385 12.8 12.8 0 0 1-3.159-.44 7.5 7.5 0 0 1-2.664-1.346q-1.18-.935-1.868-2.501-.66-1.566-.66-3.875V7.648q0-1.32.852-1.95.88-.66 2.032-.66 1.127 0 2.006.66.88.63.88 1.95v8.025q0 1.951.906 2.858.934.907 2.39.825 1.539-.111 2.197-1.182.688-1.072.385-2.858a16 16 0 0 0-.44-2.034 14 14 0 0 0-.466-1.457q-.22-.66-.385-1.29a10.4 10.4 0 0 1-.247-1.54q-.165-1.841.741-2.886.934-1.072 2.446-1.072m38.503-.165q2.938 0 4.944 1.32 2.033 1.29 3.077 3.6Q130 12.072 130 15.014q0 2.967-1.044 5.249-1.044 2.28-3.077 3.573-2.006 1.29-4.944 1.291-2.94 0-4.973-1.291-2.033-1.292-3.077-3.573t-1.044-5.25q0-2.94 1.044-5.221 1.044-2.31 3.077-3.6 2.033-1.32 4.973-1.32m-13.047.11q1.373 0 2.142.825.797.796.797 1.98v14.592q0 1.182-.851 1.951-.825.77-2.088.77t-2.061-.77q-.797-.77-.797-1.951V7.84q0-1.21.77-2.034.797-.825 2.088-.825m-10.868.055q2.94 0 4.753 1.43t1.814 4.561q0 1.621-.55 2.721-.55 1.072-1.401 1.65a4 4 0 0 1-1.785.687v.356q1.703.412 2.801 1.815 1.127 1.401 1.127 3.764 0 1.512-.824 2.282-.797.741-2.198.742-1.374 0-2.17-.824-.797-.852-.852-2.2-.11-2.335-1.181-3.297-1.044-.99-2.802-.99h-.55v4.398q0 1.428-.768 2.17-.77.743-2.034.743-1.346 0-2.115-.742-.77-.743-.77-2.171v-3.875q0-2.913.852-4.425.879-1.512 2.226-2.17l-.138-.523h-.44q-1.263 0-2.005-.797-.714-.825-.769-2.227-.027-1.373.741-2.225.77-.852 2.034-.853zm-94.217 0q1.291 0 2.06.715.77.687.769 1.951V19.41q0 .522.275.742.275.192.906-.165a25 25 0 0 1 2.446-1.264q1.072-.495 2.362-.494 1.786 0 2.692.933.907.935.907 2.446 0 1.622-.99 2.501-.961.88-3.104.88h-5.66q-1.812 0-3.02-.412A3.37 3.37 0 0 1 .604 23.01Q.001 21.884 0 19.74V7.702q0-1.262.77-1.95.796-.715 2.033-.715m118.132 6.404q-2.39 0-3.599.44-1.209.412-1.621 1.127-.412.687-.412 1.566 0 .852.412 1.621.412.742 1.621 1.21 1.208.439 3.599.44 2.39-.001 3.571-.44 1.207-.468 1.62-1.21a3.4 3.4 0 0 0 .412-1.62q0-.881-.412-1.567-.412-.714-1.62-1.127-1.182-.44-3.571-.44m-26.826-.907q-.603 0-.824.165t-.22.797v2.033q0 .605.22.797t.824.193h2.582q1.154 0 1.676-.522t.522-1.457q0-.962-.522-1.484t-1.676-.522z" clip-rule="evenodd"/></svg>