<svg xmlns="http://www.w3.org/2000/svg" width="109" height="25" fill="none" viewBox="0 0 109 25"><path fill="#fefefe" d="m0 0 .87 2.416.349 3.232 1.528-2.862h1.529v8.51l-.881.88.985.986v7.823l-1.093 2.98 4.819-2.11-.853-1.371V2.726h1.55l1.448 2.9.33-3.307L11.681 0z"/><path fill="#fefefe" d="M14.429 18.162v-7.138l1.539-.812h1.072v7.647l-.271.504 2.949-.18-.14-.21V10.69l.728-.724-.741-.738v-6.4l.581-1.044h-3.844l.724 1.058v5.76h-2.524V2.826l.55-1.044h-3.77l.588 1.058v6.292l-.815.811.895.892v7.399l-.307.442 3.047-.188zm14.857-2.602V5.502c0-2.03-1.692-3.715-3.806-3.718h-.076c-2.114.003-3.806 1.689-3.806 3.718v3.65l-.898.804.898.94v4.669c0 .933.362 1.79.954 2.448l6.08-.373a3.63 3.63 0 0 0 .654-2.075zm-2.67.178a1.178 1.178 0 0 1-2.354 0V4.798a1.178 1.178 0 0 1 2.353 0zm25.024 0V4.798a1.178 1.178 0 0 1 2.353 0v10.94c0 .126-.024.24-.059.352l1.748-.108.672 1.034c.199-.449.31-.943.31-1.459V5.498c0-2.03-1.692-3.715-3.806-3.718h-.076c-2.114.003-3.806 1.688-3.806 3.718v3.65l-.898.804.898.94v4.669q.001.426.101.829l2.678-.164a1.2 1.2 0 0 1-.108-.488zm-17.754-5.466h1.277l1.118 1.64v5.26l2.322-.142v-5.498s-.114-1.406-2.203-2.13c0 0 2.089-.596 2.162-2.048V3.395c0-.467-.213-.909-.585-1.187a2 2 0 0 0-.355-.213 2.35 2.35 0 0 0-1.014-.209h-6.117l.62 1.041v6.296l-.763.762.874.874v6.724l2.667-.164v-7.047zm-.06-6.529h2.09v3.698c-.39 1.26-2.09 1.219-2.09 1.219zm27.622 6.525h1.278l1.118 1.64v6.47s.202.045.501.174l1.817-.039v-6.98s-.114-1.407-2.204-2.132c0 0 2.09-.595 2.163-2.047V3.395c0-.467-.213-.909-.585-1.187a2 2 0 0 0-.355-.213 2.35 2.35 0 0 0-1.014-.209H58.05l.62 1.041v6.296l-.763.762.874.874v7.392l-.54.54 3.67-.08-.463-.432zm-.056-1.608V3.743h2.09v3.698c-.39 1.26-2.09 1.219-2.09 1.219M43.51 10.272h1.469l1.218-2.03h-2.632V3.743h2.263c.213 1.752 1.47 2.894 1.47 2.894l.445-3.346.794-1.505h-8.471l.797 1.428v5.954l-.62.62.75.748v6.351l2.513-.153v-6.459zm29.686 7.583v-6.337l.93-.93-.951-.946V4.039h1.435l1.295 2.187.115-2.824.794-1.591H66.83l.773 1.957.359 2.458 1.365-2.208h1.4v5.645l-.993.967.898.895V17.7l-.616.73 3.58-.076zm12.573-.93v-5.832l.637-.644-.696-.703v-6.79l.717-1.156h-4.025l.773 1.156v12.956c0 .53-.324 1.024-.822 1.184a1.23 1.23 0 0 1-.717.017c-.508-.146-.829-.65-.829-1.187V3l.648-1.205h-3.966l.773 1.292V9.64l-.783.794.724.735v5.578c.045.647.278 1.128.585 1.486l6.535-.142c.383-.585.443-1.17.443-1.17zm10.968-5.95.804-.811-.804-.812V3.005l.773-1.424h-4.022l.832 1.504v7.11l-3.154-7.402V1.58h-3.733l1.024 1.64v6.27l-.84.85.938.947v6.7l-.028.038 2.695-.06-.154-.351v-9.08l3.465 7.868v2.605l-.467.679 3.618.546-.947-1.225zm11.431 2.138-2.845 2.4v5.337l-2.764-.756v-7.712h1.295l3.193-2.48h-4.527V2.707h3.036s-.076 2.475 1.644 4.101c0 0-.038-4.7 1.8-6.779H98.429l1.017 1.73v8.531l-.731.732.88.88v8.604l-1.02 1.529s4.854.135 10.293 2.709l-.697-2.09v-9.536z"/><path fill="#6380f7" d="m54.443 22.253 1.424-2.79-43.329 2.369 41.01-.885-1.428 2.793 41.71-2.344-39.39.86z"/><path fill="#b8c6f2" d="m4.38 20.985-1.093 2.98 4.819-2.11-.853-1.371V13.74l-2.922-.63.05.052zm12.66-3.13-.271.508 2.952-.18-.139-.21v-1.58l-2.542-.547zm-5.397.822 3.047-.188-.261-.328v-2.875l-2.48-.537v3.486zm16.988-1.041a3.63 3.63 0 0 0 .655-2.075v-2.765l-2.67 1.466v1.476a1.178 1.178 0 0 1-2.354 0v-.184l-2.417 1.327c.164.414.404.797.7 1.128l6.08-.373zM49.07 16.39l2.678-.164a1.2 1.2 0 0 1-.108-.488v-2.715l-1.832.55-.839-.174v2.158q.001.428.101.83zm4.923-.652c0 .126-.024.24-.059.352l1.748-.108.672 1.034c.199-.449.31-.943.31-1.459v-4.05l-2.67.805zm-20.107 1.577v-7.047l-2.668 1.466v5.745zm2.392-.145 2.322-.143v-5.498s-.01-.118-.073-.3l-3.155-.654.906 1.33zm21.967 1.518 3.67-.08-.463-.432v-7.908h1.277l1.118 1.64v6.47s.202.045.502.174l1.817-.039v-6.98s-.115-1.407-2.204-2.132c0 0 .345-.1.759-.313l-5.937 1.786v7.274zM43.51 16.727v-4.46l-2.514-.523v5.14zm26.225-6.097.898.895V17.7l-.616.73 3.58-.08-.401-.494v-6.34l.93-.926-.948-.947V6.539l-2.45.735v2.389zm7.747-.191.724.734v5.578c.046.648.279 1.128.585 1.487l6.536-.143c.383-.584.442-1.17.442-1.17v-5.668l-2.59-1.142v5.797c0 .53-.324 1.024-.822 1.184a1.23 1.23 0 0 1-.718.017c-.508-.146-.828-.65-.828-1.187v-6.86l-2.545-1.12v1.699zm11.045 7.587 2.695-.06-.15-.351v-4.018l-2.517-1.11v5.497zm6.006-1.623v2.602l-.463.678 3.617.547-.95-1.226v-4.773l-2.904.581zm4.042 5.627s4.854.136 10.293 2.709l-.697-2.09v-9.536l-2.844 2.399v5.337l-2.765-.755v-7.03l-2.963.595v6.842l-1.02 1.529z"/></svg>