<svg xmlns="http://www.w3.org/2000/svg" width="300" height="227" fill="none" viewBox="0 0 300 227"><path fill="#fff" d="M53.5 158.045c-1.94-5.21.54-14.96 2.16-20.24 1.95-6.39 4.46-12.32 6.95-18.53l8.74-21.74c2.61-6.49 5.39-17.72 4.55-24.7-.27-2.28-1.67-3.99-3.81-4.63-2.57-.76-5.18-.46-7.66.66-7.69 3.48-14.74 10.82-20.08 17.3-4.03 4.88-7.35 9.99-9.91 15.8-2.89 6.55-7.77 23.11 2.27 25.84 8.46 2.3 14.28-6.05 15.53-6.15 1.54-.12-4.61 10.07-14.35 9.06-3.59-.37-6.59-1.71-8.8-4.58-4.65-6.03-3.27-15.53-.94-22.33s6.12-13.39 10.73-19.31c5.99-7.7 13.51-14.11 22.47-18 5.65-2.45 12.02-1.9 16.88 1.74 2.37 1.78 3.58 4.5 4.23 7.32 2.04 8.92-2.75 23.79-6.01 32.39l-8.53 22.49c-1.98 5.23-7.28 20.18-6.04 25.15 1.23 1.65 6.82-5.08 7.6-6.03 6.45-7.91 12.13-16.2 17.58-24.87 8.73-13.87 19.29-33.87 19.96-50.4.21-5.23-2.3-7.73-1.47-8.25 1.4-.87 4.24 1.62 5.3 3.94 2.76 6.04-.11 16.45-2.31 22.58-5.32 14.86-14.79 30.28-23.82 43.21-3.7 5.29-7.42 10.26-11.57 15.18-3 3.55-7.57 8.47-11.71 10.37-3.15 1.44-6.68.07-7.92-3.27zm53.361-3.65c1.52-9.04 8.34-21.4 12.33-29.79-3.93 4.35-8.64 9.9-14.97 9.93-1.19 0-2.53-.55-3.17-1.25-2.27-2.51-.02-7.92 1.46-10.64l5.7-10.51c1.35-2.48 2.46-4.89 3.5-7.58.14-.36 1.09-.47 1.46-.27 2.04 1.08 2.73 3.33 1.98 5.44-.9 2.51-2.09 4.77-3.46 7.04l-4.88 8.09c-.84 1.4-2.95 5.45-1.47 6.66 1.57 1.29 5.31-1.25 6.7-2.41 2.66-2.2 4.95-4.63 7.08-7.37 3.7-4.79 9.2-13.3 9.73-19.3 3.28.02 3.61 3.65 3.15 6.12s-1.73 4.56-2.74 6.98c3.07-3.59 7.48-9.3 11.44-11.53 1.28-.72 2.78-.83 4.12-.24 3.57 1.57 3.53 7.23 2.52 10.67-1.93 6.58-5.93 12.41-11.21 16.78-3.48 2.88-8.24 4.32-12.6 2.85-1.16-.39-1.59-1.24-2-2.5-2.84 5.72-5.48 11.2-7.64 17.07-1.09 2.98-1.56 6.01-1.98 9.16-.31 2.29.39 3.51.09 4.13-.44.91-2.92.13-4.14-1.81-1.04-1.66-1.33-3.6-.97-5.73zm35.24-40.41c.74-1.55 1.98-5.47.86-6.61-1.32-1.35-4.92 1.5-6.14 2.61-6.16 5.59-10.93 12.41-14.51 20.04 1.54 2.18 4.41 2.53 6.63 1.18 5.28-3.19 10.52-11.68 13.16-17.22m118.41 20.54c-.18-.39-.29-.86-.11-.9l.93-.22c.42-.1 1.09-.31 1.27-.61s-.02-1.14-.26-1.45l-9.69-12.47.02 11.43c0 .93.44 1.79.96 2.52l2.6.57c.18.04.53.24.67.35s-.15.72-.32.72l-13.52.05c-.21 0-.56-.74-.4-.88.8-.66 4.39.08 4.39-3.22l-.02-36.17c0-1.77-2.12-2.6-3.21-2.18-.18.07-.71-.08-.85-.15-.19-.09.24-.66.45-.74l9.23-3.79.02 29.91 8.43-8.33c.87-.86 1.19-1.94 1.05-3.14-1.59-1.23-2.71-.49-3.09-1.41-.07-.17.45-.39.7-.39h10.81c.2 0 .74.31.65.41l-.53.61c-2.28.13-4.08 1.25-5.67 2.82l-7.84 7.72 11.41 15.05c2.25 2.96 4.34 2.3 4.94 3.23.08.12-.27.61-.47.61l-12.54.04z"/><path fill="#fff" d="m186.121 122.715-3.62 11.79h-34.68c-.52 0-.68-.65-.57-.82.62-.9 3.72.17 5.09-2.01.72-1.15 1.18-2.82 1.18-4.31v-29.54c0-1.3-.07-2.52-.17-3.75-.4-4.95-5.79-3.21-6.08-4.22-.08-.29 0-1.08.5-1.08h17.64c.43.01.56 1.28.28 1.36s-.86.18-1.25.14c-2.4-.21-4.6 1.17-4.6 3.79v35.42c0 1.35 1.03 2.3 2.27 2.36 4.57.22 9.06.2 13.61-.28 4.95-.53 7.1-4.08 8.97-8.21.26-.57.58-1.06 1.42-.65zm25.879 5.91c0 .88.69 1.77 1.1 2.14 1.1.98 2.13-.31 2.94.36.16.13-.09.69-.29.77l-9.09 3.74-.11-6.04-3.24 3.11c-2.09 2-4.72 2.95-7.63 2.72-4.95-.38-6.99-4.81-7.02-9.14l-.12-18.16c-.01-1.91-1.64-3.06-3.35-3.04-.2 0-.64-.28-.77-.43s.38-.63.59-.63l8.92.03.03 20.22c0 1.41.21 2.87.61 4.13.73 2.37 2.98 3.4 5.37 3 2.63-.43 4.82-2 6.7-3.9l-.02-18.92c0-1-.59-2.17-1.17-2.68-1.41-1.23-2.56-.4-3.75-1.02-.2-.1.06-.87.37-.87l9.87.02.07 24.57zm21.02 1.82c3.62-.64 6.11-3.33 7.75-6.29.17-.31.5-.6.72-.54s.55.64.45.91c-.86 2.33-1.99 5.01-3.7 6.98-1.88 2.17-4.2 3.72-7.03 4.02-3.99.42-7.62-1.12-10.15-4.14-4.79-5.72-4.86-15.1-1.36-21.5 2.36-4.32 6.56-6.93 11.48-6.95 3.18-.01 6.18.94 8.3 3.35 1.01 1.15 1.68 2.63 1.65 4.12-.04 1.87-1.38 3.05-3.07 3.08s-2.83-1.38-2.96-3.17c-.12-1.55-.69-3.04-1.72-3.88-1.25-1.02-2.79-1.41-4.38-1-2.15.54-4 2.07-4.93 4.21-2.39 5.5-2 11.96 1.25 17.01 1.65 2.56 4.57 4.34 7.71 3.79zm-114.419-31.34c-.73.7-2.72.999-2.82-.18-.15-1.8 3.72-5.77 2.72-10.53l-.19-.89c-.07-.31 1.1-1.06 3.22.6 1.57 1.24 2.14 3.19 1.28 5.01-1.06 2.22-2.37 4.23-4.21 6z"/></svg>