<svg xmlns="http://www.w3.org/2000/svg" width="256" height="256" viewBox="0 0 256 256"><svg width="241" height="78" transform="translate(8 89)" viewBox="0 0 200 65"><path fill="#fff" d="M42.542 62.59H29.15a7 7 0 0 1-3.896-1.167 6.56 6.56 0 0 1-2.585-3.16L0 2.01h15.638l17.93 44.175L49.897 6.427a6.83 6.83 0 0 1 2.585-3.206 6.85 6.85 0 0 1 3.896-1.212h10.86L42.549 62.581zm104.724 1.172-13.353-.406 43.662-58.578q.965-1.378 2.669-2.078a9.1 9.1 0 0 1 3.458-.69h13.146l-43.37 58.976c-.645.92-1.549 1.61-2.715 2.079a9.5 9.5 0 0 1-3.505.69zm8.106-32.993L133.054 2.01h18.706l12.884 16.804zm42.327 32.994-18.583-.292-12.102-17.049 9.218-12.21 21.467 29.558zm2.302 0h-.009l.009.009z"/><path fill="#c74413" d="M102.676 10.2c5.975 0 11.589 2.301 15.814 6.473a22 22 0 0 1 4.863 7.17 21.6 21.6 0 0 1 1.687 8.468c0 5.905-2.324 11.458-6.55 15.63a22.3 22.3 0 0 1-7.247 4.8 22.4 22.4 0 0 1-8.567 1.673 22.5 22.5 0 0 1-8.566-1.672 22.3 22.3 0 0 1-7.248-4.801A22 22 0 0 1 82 40.77a21.6 21.6 0 0 1-1.687-8.467c0-5.905 2.324-11.458 6.55-15.63a22.3 22.3 0 0 1 7.247-4.8 22.4 22.4 0 0 1 8.566-1.673m0-8.605c-17.156 0-31.068 13.751-31.068 30.708s13.912 30.708 31.068 30.708c17.157 0 31.069-13.751 31.069-30.708S119.833 1.595 102.676 1.595"/><path fill="#f85d11" d="M102.676 9.05c6.282 0 12.195 2.416 16.635 6.81a23 23 0 0 1 5.108 7.539 22.9 22.9 0 0 1 1.779 8.904c0 6.212-2.446 12.049-6.887 16.443a23.5 23.5 0 0 1-7.623 5.054 23.5 23.5 0 0 1-9.004 1.756 23.7 23.7 0 0 1-9.011-1.756 23.4 23.4 0 0 1-7.631-5.054 23 23 0 0 1-5.108-7.539 22.9 22.9 0 0 1-1.78-8.904c0-6.212 2.447-12.048 6.888-16.443a23.5 23.5 0 0 1 7.63-5.054 23.7 23.7 0 0 1 9.012-1.756zm0-9.05C84.631 0 69.998 14.464 69.998 32.303S84.63 64.6 102.676 64.6s32.679-14.465 32.679-32.296S120.722 0 102.676 0"/><path fill="#f85d11" d="M102.676 55.08c12.724 0 23.039-10.2 23.039-22.777S115.4 9.525 102.676 9.525c-12.723 0-23.038 10.2-23.038 22.778s10.315 22.778 23.038 22.778"/><path fill="#fff" d="M102.676 46.852c8.13 0 14.718-6.511 14.718-14.549s-6.588-14.549-14.718-14.549-14.717 6.512-14.717 14.55c0 8.036 6.588 14.548 14.717 14.548m-2.086 16.144c-.084 0-.161 0-.245-.008a31.44 31.44 0 0 1-14.418-4.74 3.2 3.2 0 0 1-1.342-1.994 3.15 3.15 0 0 1 .444-2.354 3.23 3.23 0 0 1 1.979-1.388 3.28 3.28 0 0 1 2.4.36 24.9 24.9 0 0 0 11.42 3.75 3.25 3.25 0 0 1 2.148 1.059c.552.613.843 1.411.812 2.232a3.2 3.2 0 0 1-.974 2.17 3.24 3.24 0 0 1-2.224.905zm14.948-3.022a3.27 3.27 0 0 1-1.994-.675 3.17 3.17 0 0 1-1.143-1.748 3.18 3.18 0 0 1 1.649-3.59 24.8 24.8 0 0 0 9.019-7.907 3.24 3.24 0 0 1 2.063-1.258 3.28 3.28 0 0 1 2.37.514 3.2 3.2 0 0 1 1.342 1.994 3.18 3.18 0 0 1-.437 2.355 31.2 31.2 0 0 1-11.366 9.962 3.2 3.2 0 0 1-1.488.36zm-38.01-12.5a3.24 3.24 0 0 1-2.906-1.803 30.16 30.16 0 0 1-3.083-13.345c0-.445 0-.89.023-1.334v-.039a3.18 3.18 0 0 1 1.074-2.155 3.25 3.25 0 0 1 2.293-.797 3.22 3.22 0 0 1 2.209 1.012 3.15 3.15 0 0 1 .866 2.247l-3.22-.146 3.22.154A23.9 23.9 0 0 0 80.42 42.91a3.14 3.14 0 0 1 .315 1.564 3.2 3.2 0 0 1-.491 1.519 3.16 3.16 0 0 1-1.174 1.097 3.3 3.3 0 0 1-1.564.398zm53.026-10.746h-.153a3.4 3.4 0 0 1-1.22-.299 3.2 3.2 0 0 1-1.012-.736 3.3 3.3 0 0 1-.652-1.066 3.1 3.1 0 0 1-.184-1.235v-.038a23.8 23.8 0 0 0-2.431-11.657 3.2 3.2 0 0 1-.314-1.204c-.023-.422.03-.836.176-1.235s.353-.76.636-1.074a3.24 3.24 0 0 1 2.225-1.066c.421-.023.843.03 1.25.169a3.2 3.2 0 0 1 1.848 1.618 30.2 30.2 0 0 1 3.098 13.375c0 .445-.007.898-.03 1.342v.07a3.18 3.18 0 0 1-.997 2.154 3.23 3.23 0 0 1-2.224.882zM79.6 19.963a3.3 3.3 0 0 1-1.665-.46 3.2 3.2 0 0 1-1.189-1.242 3.16 3.16 0 0 1 .185-3.283 31.2 31.2 0 0 1 11.35-9.97 3.27 3.27 0 0 1 3.566.391c.323.269.59.598.79.974.2.368.315.775.353 1.197s-.008.836-.138 1.234c-.13.4-.33.767-.606 1.09a3.3 3.3 0 0 1-.981.782 24.8 24.8 0 0 0-9.004 7.914 3.23 3.23 0 0 1-2.67 1.389zm38.055-7.746a3.3 3.3 0 0 1-1.734-.498 24.9 24.9 0 0 0-11.427-3.743 3.26 3.26 0 0 1-2.109-1.135 3.16 3.16 0 0 1-.729-2.262 3.15 3.15 0 0 1 1.059-2.132 3.3 3.3 0 0 1 2.255-.821 31.5 31.5 0 0 1 14.425 4.724 3.18 3.18 0 0 1 1.358 3.582 3.21 3.21 0 0 1-3.091 2.293z"/></svg></svg>