<svg xmlns="http://www.w3.org/2000/svg" width="186" height="20" fill="none" viewBox="0 0 186 20"><path fill="url(#a)" d="m44.701 6.976 6.47.756-12.669 11.266 1.802-6.459-6.793.163 3.716-11.534L48.73 1zM120 6.79h-10.945v1.383h8.417v3.65h-8.417v1.406h11.087v5.51H100.35l.003-.004V1.33H120zm66 .286-7.488 5.295H186v6.367h-20.696l-.003-.003V12.99l8.823-5.27-8.654-.025V1.33H186zM11.373 9.532 14.14 1.33h6.08l2.743 8.179 2.169-8.179h9.227l-5.174 17.406h-9.633l-2.36-7.843-2.384 7.843H5.174L0 1.33h9.228zm54.929-1.145V1.329h8.537v17.406h-8.562l-5.65-7.463v7.463H52.09V1.33h9.061zm23.417-7.058c6.795 0 8.989 2.17 8.989 4.506 0 2.504-2.336 3.791-5.032 4.15v.047c2.766.359 5.533 1.694 5.533 4.198 0 2.336-2.17 4.505-9.49 4.505H76.746V1.33zm55.126 17.406h-8.893l-.644-1.835h-5.389l-.645 1.835h-8.895l6.867-17.406h10.707zm19.311-10.348h-6.367v10.348h-9.298V8.387h-6.415V1.329h22.08zm-79.04 4.912h3.624c1.145 0 1.455-.31 1.455-.763 0-.476-.334-.81-1.407-.81h-3.673zm46.258-1.741h2.478l-1.239-3.912zm-46.259-3.22h3.34c.93 0 1.262-.358 1.262-.81s-.335-.762-1.287-.762h-3.315z"/><defs><linearGradient id="a" x1="1.452" x2="187.9" y1="9.919" y2="5.676" gradientUnits="userSpaceOnUse"><stop stop-color="#1fe7b6"/><stop offset="1" stop-color="#5de687"/></linearGradient></defs></svg>